<?xml version="1.0" encoding="iso-8859-1"?>
<!-- Generator: Adobe Illustrator 19.0.0, SVG Export Plug-In . SVG Version: 6.00 Build 0)  -->
<svg version="1.1" id="Layer_1" xmlns="http://www.w3.org/2000/svg" xmlns:xlink="http://www.w3.org/1999/xlink" x="0px" y="0px"
	 viewBox="0 0 511.999 511.999" style="enable-background:new 0 0 511.999 511.999;" xml:space="preserve">
<path style="fill:#EF495B;" d="M412.324,91.053H68.751c-19.553,0-35.405,15.851-35.405,35.404l0,0h414.381l0,0
	C447.729,106.904,431.877,91.053,412.324,91.053z"/>
<g>
	<path style="fill:#CFD8DC;" d="M152.92,165.112c-4.27,0-7.731-3.461-7.731-7.731V80.744c0-4.27,3.461-7.731,7.731-7.731
		c4.27,0,7.731,3.461,7.731,7.731v76.636C160.651,161.65,157.19,165.112,152.92,165.112z"/>
	<path style="fill:#CFD8DC;" d="M188.998,165.112c-4.27,0-7.731-3.461-7.731-7.731V80.744c0-4.27,3.461-7.731,7.731-7.731
		c4.27,0,7.731,3.461,7.731,7.731v76.636C196.729,161.65,193.268,165.112,188.998,165.112z"/>
</g>
<polygon style="fill:#EF495B;" points="256,222.211 13.134,287.04 13.134,382.282 498.866,382.282 498.866,287.04 "/>
<path style="fill:#FFF9C5;" d="M424.89,157.381H87.11c-40.856,0-73.976,33.121-73.976,73.976v55.684h485.732v-55.684
	C498.866,190.501,465.746,157.381,424.89,157.381z"/>
<g>
	<rect x="188.997" y="188.306" style="fill:#4FC3F7;" width="134.004" height="70.28"/>
	<path style="fill:#4FC3F7;" d="M152.92,188.305H87.11c-23.739,0-43.052,19.313-43.052,43.052v27.23h108.862v-70.282H152.92z"/>
	<path style="fill:#4FC3F7;" d="M359.08,188.305h65.81c23.739,0,43.052,19.313,43.052,43.052v27.23H359.08V188.305z"/>
</g>
<path style="opacity:0.1;enable-background:new    ;" d="M498.866,382.282v-44.393h-39.647c-20.127,0-36.503,16.375-36.503,36.502
	v7.892H498.866z"/>
<path style="fill:#CFD8DC;" d="M501.267,363.658h-42.048c-5.927,0-10.732,4.805-10.732,10.732v14.683
	c0,5.927,4.805,10.732,10.732,10.732h42.048c5.927,0,10.732-4.805,10.732-10.732V374.39
	C512,368.464,507.194,363.658,501.267,363.658z"/>
<path style="opacity:0.1;enable-background:new    ;" d="M89.283,374.39c0-20.126-16.374-36.502-36.502-36.502H13.134v44.393h76.149
	v-7.892H89.283z"/>
<path style="fill:#CFD8DC;" d="M10.732,363.658H52.78c5.927,0,10.732,4.805,10.732,10.732v14.683
	c0,5.927-4.805,10.732-10.732,10.732H10.732C4.805,399.805,0,395.001,0,389.074v-14.683C0,368.464,4.805,363.658,10.732,363.658z"/>
<circle style="fill:#212121;" cx="364.614" cy="392.59" r="46.396"/>
<circle style="fill:#FFF9C5;" cx="364.614" cy="392.59" r="21.253"/>
<circle style="fill:#212121;" cx="137.117" cy="392.59" r="46.396"/>
<circle style="fill:#FFF9C5;" cx="137.117" cy="392.59" r="21.253"/>
<path style="fill:#CFD8DC;" d="M394.556,322.136h-35.477c-4.27,0-7.731-3.461-7.731-7.731c0-4.27,3.461-7.731,7.731-7.731h35.477
	c4.27,0,7.731,3.461,7.731,7.731C402.287,318.674,398.825,322.136,394.556,322.136z"/>
<g>
</g>
<g>
</g>
<g>
</g>
<g>
</g>
<g>
</g>
<g>
</g>
<g>
</g>
<g>
</g>
<g>
</g>
<g>
</g>
<g>
</g>
<g>
</g>
<g>
</g>
<g>
</g>
<g>
</g>
</svg>
