<svg height="480pt" viewBox="0 -72 480 480" width="480pt" xmlns="http://www.w3.org/2000/svg"><path d="m232 184v96h104c0-26.398438 21.601562-48 48-48s48 21.601562 48 48h32c4.800781 0 8-4 8-8v-88zm0 0" fill="#ad3743"/><path d="m168 280c0 26.507812-21.492188 48-48 48s-48-21.492188-48-48 21.492188-48 48-48 48 21.492188 48 48zm0 0" fill="#ca7b14"/><path d="m432 280c0 26.507812-21.492188 48-48 48s-48-21.492188-48-48 21.492188-48 48-48 48 21.492188 48 48zm0 0" fill="#ca7b14"/><path d="m136 280c0 8.835938-7.164062 16-16 16s-16-7.164062-16-16 7.164062-16 16-16 16 7.164062 16 16zm0 0" fill="#326462"/><path d="m400 280c0 8.835938-7.164062 16-16 16s-16-7.164062-16-16 7.164062-16 16-16 16 7.164062 16 16zm0 0" fill="#326462"/><path d="m80 184-59.199219 13.601562c-7.199219 1.597657-12.800781 8-12.800781 15.199219v59.199219c0 4.800781 4 8 8 8h56c0-26.398438 21.601562-48 48-48s48 21.601562 48 48h64v-96zm0 0" fill="#ad3743"/><path d="m8 248h16c8.800781 0 16 7.199219 16 16v16h-24c-4.800781 0-8-4-8-8zm0 0" fill="#ca7b14"/><path d="m224 88h-78.398438c-5.601562 0-11.203124 3.199219-13.601562 8l-52 88h152v-88c0-4-4-8-8-8zm0 0" fill="#a9c1a7"/><path d="m280 80h72v104h-80v-96c0-4 4-8 8-8zm0 0" fill="#ca7b14"/><path d="m272 88v24h80v-32h-72c-4 0-8 4-8 8zm0 0" fill="#ad3743"/><path d="m440 184h-88v-168c0-4.800781 3.199219-8 8-8h72c4.800781 0 8 3.199219 8 8zm0 0" fill="#a9c1a7"/><path d="m360 8h72c4.800781 0 8 3.199219 8 8v40h-88v-40c0-4.800781 3.199219-8 8-8zm0 0" fill="#326462"/><path d="m352 56h88v48h-88zm0 0" fill="#ca7b14"/><path d="m352 40.800781c-21.601562-4.800781-42.398438 9.597657-47.199219 31.199219-.800781 2.398438-.800781 5.601562-.800781 8h48zm0 0" fill="#a9c1a7"/><path d="m144.800781 88c-5.601562 0-11.199219 3.199219-13.601562 8l-51.199219 88h40l56-96zm0 0" fill="#f5f4d5"/><path d="m232 184h240v32h-240zm0 0" fill="#326462"/><g fill="#172643"><path d="m120 256c-13.601562 0-24 10.398438-24 24s10.398438 24 24 24 24-10.398438 24-24-10.398438-24-24-24zm0 32c-4.800781 0-8-3.199219-8-8s3.199219-8 8-8 8 3.199219 8 8-3.199219 8-8 8zm0 0"/><path d="m384 256c-13.601562 0-24 10.398438-24 24s10.398438 24 24 24 24-10.398438 24-24-10.398438-24-24-24zm0 32c-4.800781 0-8-3.199219-8-8s3.199219-8 8-8 8 3.199219 8 8-3.199219 8-8 8zm0 0"/><path d="m464.800781 136h-16.800781v-120c0-8.800781-7.199219-16-16-16h-72c-8.800781 0-16 7.199219-16 16v16c-23.199219 0-43.199219 16.800781-47.199219 40h-16c-8.800781 0-16 7.199219-16 16v48h-24v-40c0-8.800781-7.199219-16-16-16h-78.402343c-8.796876 0-16 4.800781-20.796876 12l-49.601562 84.800781-56 12.800781c-12 2.398438-20 12-20 23.199219v59.199219c0 8.800781 7.199219 16 16 16h48.800781c4 30.398438 32.800781 52 63.199219 47.199219 24.800781-3.199219 44-23.199219 47.199219-47.199219h153.601562c4 30.398438 32.800781 52 63.199219 47.199219 24.800781-3.199219 44-23.199219 47.199219-47.199219h24.800781c8.800781 0 16-7.199219 16-16v-120c0-8.800781-7.199219-16-15.199219-16zm-.800781 15.199219v24.800781h-16v-24zm-104 24.800781v-24h24v24zm-40 0v-24h24v24zm-40 0v-24h24v24zm152-80h-72v-32h72zm-32 56h32v24h-32zm-40-16v-24h72v24zm72-120v32h-72v-32zm-88 32v24h-31.199219c4-14.398438 16.800781-24 31.199219-24zm-64 72h16c4.800781 0 8-3.199219 8-8s-3.199219-8-8-8h-16v-16h64v48h-64zm-16 32v24h-24v-24zm-40 24h-90.398438l46.398438-80h44zm-85.601562-76c1.601562-2.398438 4-4 6.402343-4h16.800781l-46.402343 80h-21.597657zm-116 104.800781 58.402343-12.800781h143.199219v80h-16c-1.601562-16-7.199219-32-17.601562-44.800781-2.398438-3.199219-8-4-11.199219-1.597657-3.199219 2.398438-4 8-1.597657 11.199219 8 10.398438 12.796876 22.398438 14.398438 35.199219h-16c-4-30.398438-32.800781-52-63.199219-47.199219-24.800781 3.199219-44 23.199219-47.199219 47.199219h-17.601562v-8c0-13.601562-10.398438-24-24-24h-8v-27.199219c0-4 2.398438-7.199219 6.398438-8zm-6.398438 51.199219h8c4.800781 0 8 3.199219 8 8v8h-16zm104 64c-22.398438 0-40-17.601562-40-40s17.601562-40 40-40 40 17.601562 40 40-17.601562 40-40 40zm264 0c-22.398438 0-40-17.601562-40-40s17.601562-40 40-40 40 17.601562 40 40-17.601562 40-40 40zm55.199219-48c-4-30.398438-32.800781-52-63.199219-47.199219-24.800781 3.199219-44 23.199219-47.199219 47.199219h-16c1.597657-12.800781 6.398438-24.800781 14.398438-35.199219 2.402343-3.199219 1.601562-8.800781-1.597657-11.199219-3.203124-2.402343-8.800781-1.601562-11.203124 1.597657-10.398438 12.800781-16.796876 28.800781-18.398438 44.800781h-56v-48h24c4.800781 0 8-3.199219 8-8s-3.199219-8-8-8h-24v-16h224v16h-24c-4.800781 0-8 3.199219-8 8s3.199219 8 8 8h24v48zm0 0"/></g></svg>